<?xml version="1.0" encoding="UTF-8" standalone="no"?>
<svg xmlns:dc="http://purl.org/dc/elements/1.1/" xmlns:cc="http://creativecommons.org/ns#" xmlns:rdf="http://www.w3.org/1999/02/22-rdf-syntax-ns#" xmlns:svg="http://www.w3.org/2000/svg" xmlns="http://www.w3.org/2000/svg" xmlns:xlink="http://www.w3.org/1999/xlink" xmlns:sodipodi="http://sodipodi.sourceforge.net/DTD/sodipodi-0.dtd" xmlns:inkscape="http://www.inkscape.org/namespaces/inkscape" version="1.0" width="620" height="620" viewBox="0 0 62 62" id="svg0" sodipodi:version="0.32" inkscape:version="0.46" sodipodi:docname="Ambox_clock_yellow.svg" inkscape:output_extension="org.inkscape.output.svg.inkscape" sodipodi:docbase="C:\Documents and Settings\KevinDuke\Desktop">
  <metadata id="metadata19">
    <rdf:RDF>
      <cc:Work rdf:about="">
        <dc:format>image/svg+xml</dc:format>
        <dc:type rdf:resource="http://purl.org/dc/dcmitype/StillImage"/>
      </cc:Work>
    </rdf:RDF>
  </metadata>
  <sodipodi:namedview inkscape:window-height="750" inkscape:window-width="1280" inkscape:pageshadow="2" inkscape:pageopacity="0.0" guidetolerance="10.0" gridtolerance="10.0" objecttolerance="10.0" borderopacity="1.0" bordercolor="#666666" pagecolor="#ffffff" id="base" inkscape:zoom="0.35355339" inkscape:cx="500.08081" inkscape:cy="194.88517" inkscape:window-x="-8" inkscape:window-y="-8" inkscape:current-layer="svg0" showgrid="false"/>
  <defs id="defs4">
    <inkscape:perspective sodipodi:type="inkscape:persp3d" inkscape:vp_x="0 : 310 : 1" inkscape:vp_y="0 : 1000 : 0" inkscape:vp_z="620 : 310 : 1" inkscape:persp3d-origin="310 : 206.66667 : 1" id="perspective23"/>
    <radialGradient id="shadowGradient">
      <stop id="stop17" style="stop-color:#c0c0c0;stop-opacity:1" offset="0"/>
      <stop id="stop19" style="stop-color:#c0c0c0;stop-opacity:1" offset="0.88"/>
      <stop id="stop21" style="stop-color:#c0c0c0;stop-opacity:0" offset="1"/>
    </radialGradient>
    <linearGradient x1="10.978114" y1="-12.038551" x2="43.214401" y2="52.787098" id="fieldGradient" gradientUnits="userSpaceOnUse">
      <stop id="stop7" style="stop-color:#f6f6ac;stop-opacity:1;" offset="0"/>
      <stop id="stop9" style="stop-color:#ffd200;stop-opacity:1;" offset="1"/>
    </linearGradient>
    <linearGradient x1="54.509937" y1="41.179295" x2="9.5471001" y2="16.248501" id="edgeGradient" gradientUnits="userSpaceOnUse">
      <stop id="stop12" style="stop-color:#ac821c;stop-opacity:1;" offset="0"/>
      <stop id="stop14" style="stop-color:#e8a637;stop-opacity:1;" offset="1"/>
    </linearGradient>
    <linearGradient gradientUnits="userSpaceOnUse" id="linearGradient3337" y2="16.248501" x2="9.5471001" y1="41.179295" x1="54.509937">
      <stop offset="0" style="stop-color:#ac821c;stop-opacity:1;" id="stop3339"/>
      <stop offset="1" style="stop-color:#e8a637;stop-opacity:1;" id="stop3341"/>
    </linearGradient>
    <linearGradient gradientUnits="userSpaceOnUse" id="linearGradient3331" y2="52.787098" x2="43.214401" y1="-12.038551" x1="10.978114">
      <stop offset="0" style="stop-color:#f6f6ac;stop-opacity:1;" id="stop3333"/>
      <stop offset="1" style="stop-color:#ffd200;stop-opacity:1;" id="stop3335"/>
    </linearGradient>
    <radialGradient id="radialGradient3323">
      <stop offset="0" style="stop-color:#c0c0c0;stop-opacity:1" id="stop3325"/>
      <stop offset="0.88" style="stop-color:#c0c0c0;stop-opacity:1" id="stop3327"/>
      <stop offset="1" style="stop-color:#c0c0c0;stop-opacity:0" id="stop3329"/>
    </radialGradient>
    <inkscape:perspective id="perspective3321" inkscape:persp3d-origin="310 : 206.66667 : 1" inkscape:vp_z="620 : 310 : 1" inkscape:vp_y="0 : 1000 : 0" inkscape:vp_x="0 : 310 : 1" sodipodi:type="inkscape:persp3d"/>
    <linearGradient gradientUnits="userSpaceOnUse" id="linearGradient3454" y2="16.248501" x2="9.5471001" y1="41.179295" x1="54.509937">
      <stop offset="0" style="stop-color:#9a9912;stop-opacity:1;" id="stop3456"/>
      <stop offset="1" style="stop-color:#d3c93e;stop-opacity:1;" id="stop3458"/>
    </linearGradient>
    <linearGradient gradientUnits="userSpaceOnUse" id="linearGradient3448" y2="51.987099" x2="22.0144" y1="-13.238551" x1="52.778114">
      <stop offset="0" style="stop-color:#f6f6ac;stop-opacity:1;" id="stop3450"/>
      <stop offset="1" style="stop-color:#ffd200;stop-opacity:1;" id="stop3452"/>
    </linearGradient>
    <radialGradient id="radialGradient3440">
      <stop offset="0" style="stop-color:#c0c0c0;stop-opacity:1" id="stop3442"/>
      <stop offset="0.88" style="stop-color:#c0c0c0;stop-opacity:1" id="stop3444"/>
      <stop offset="1" style="stop-color:#c0c0c0;stop-opacity:0" id="stop3446"/>
    </radialGradient>
    <inkscape:perspective id="perspective3437" inkscape:persp3d-origin="310 : 206.66667 : 1" inkscape:vp_z="620 : 310 : 1" inkscape:vp_y="0 : 1000 : 0" inkscape:vp_x="0 : 310 : 1" sodipodi:type="inkscape:persp3d"/>
    <linearGradient xlink:href="#fieldGradient" gradientUnits="userSpaceOnUse" id="linearGradient2963" y2="16.248501" x2="9.5471001" y1="41.179295" x1="54.509937">
      <stop offset="0" style="stop-color:#f98433;stop-opacity:1;" id="stop2965"/>
      <stop offset="1" style="stop-color:#e37b00;stop-opacity:1;" id="stop2967"/>
    </linearGradient>
    <linearGradient gradientUnits="userSpaceOnUse" id="linearGradient2957" y2="51.987099" x2="22.0144" y1="-13.238551" x1="52.778114">
      <stop offset="0" style="stop-color:#ffe1b8;stop-opacity:1;" id="stop2959"/>
      <stop offset="1" style="stop-color:#ff8b00;stop-opacity:1;" id="stop2961"/>
    </linearGradient>
    <radialGradient id="radialGradient2949">
      <stop offset="0" style="stop-color:#c0c0c0;stop-opacity:1" id="stop2951"/>
      <stop offset="0.88" style="stop-color:#c0c0c0;stop-opacity:1" id="stop2953"/>
      <stop offset="1" style="stop-color:#c0c0c0;stop-opacity:0" id="stop2955"/>
    </radialGradient>
    <inkscape:perspective id="perspective2946" inkscape:persp3d-origin="310 : 206.66667 : 1" inkscape:vp_z="620 : 310 : 1" inkscape:vp_y="0 : 1000 : 0" inkscape:vp_x="0 : 310 : 1" sodipodi:type="inkscape:persp3d"/>
    <linearGradient inkscape:collect="always" xlink:href="#SVGID_7_" id="linearGradient3363" gradientUnits="userSpaceOnUse" gradientTransform="matrix(1,0,0,-1,0,-538)" x1="61.6255" y1="-551.25" x2="61.6255" y2="-652.24951"/>
    <linearGradient inkscape:collect="always" xlink:href="#SVGID_10_" id="linearGradient3365" gradientUnits="userSpaceOnUse" gradientTransform="translate(0,-665)" x1="10.25" y1="728.875" x2="107.833" y2="728.875"/>
    <linearGradient inkscape:collect="always" xlink:href="#SVGID_11_" id="linearGradient3367" gradientUnits="userSpaceOnUse" gradientTransform="matrix(0.9796,-0.2008,-0.2008,-0.9796,63.7493,-682.0253)" x1="-160.0361" y1="-726.61621" x2="-160.0361" y2="-729.13458"/>
    <linearGradient inkscape:collect="always" xlink:href="#SVGID_12_" id="linearGradient3369" gradientUnits="userSpaceOnUse" gradientTransform="matrix(0.6552,-0.7555,-0.7555,-0.6552,80.6896,-1161.2106)" x1="-915.77289" y1="-785.93951" x2="-915.77289" y2="-789.15601"/>
    <linearGradient inkscape:collect="always" xlink:href="#SVGID_13_" id="linearGradient3371" gradientUnits="userSpaceOnUse" gradientTransform="matrix(1,0,0,-1,0,-538)" x1="62.4063" y1="-595" x2="62.4063" y2="-603.18707"/>
    <radialGradient inkscape:collect="always" xlink:href="#SVGID_14_" id="radialGradient3373" gradientUnits="userSpaceOnUse" gradientTransform="matrix(1,0,0,-1,0,-538)" cx="61.3652" cy="-595.29199" r="7.5655999"/>
    <linearGradient inkscape:collect="always" xlink:href="#fieldGradient" id="linearGradient3375" gradientUnits="userSpaceOnUse" x1="10.978114" y1="-12.038551" x2="43.214401" y2="52.787098"/>
    <linearGradient inkscape:collect="always" xlink:href="#edgeGradient" id="linearGradient3377" gradientUnits="userSpaceOnUse" x1="54.509937" y1="41.179295" x2="9.5471001" y2="16.248501"/>
    <radialGradient inkscape:collect="always" xlink:href="#shadowGradient" id="radialGradient3379" gradientUnits="userSpaceOnUse" cx="32.5" cy="29.5" fx="32.5" fy="29.5" r="26.5"/>
  </defs>
  <circle sodipodi:ry="26.5" sodipodi:rx="26.5" sodipodi:cy="29.5" sodipodi:cx="32.5" cx="32.5" cy="29.5" r="26.5" transform="matrix(1.1607204,0,0,1.1607443,-5.6212338,-3.1122094)" id="shadow" style="fill:url(#radialGradient3379);stroke:none"/>
  <circle sodipodi:ry="25.799999" sodipodi:rx="25.799999" sodipodi:cy="31" sodipodi:cx="31" cx="31" cy="31" r="25.799999" id="field" style="fill:url(#linearGradient3375);fill-opacity:1;stroke:url(#linearGradient3377);stroke-width:2" transform="matrix(1.0900831,0,0,1.0900831,-3.3320594,-4.2964756)"/>
  <g id="Layer_6" transform="matrix(0.4789082,0,0,0.4789082,0.8986429,-0.3032892)" style="fill:#d0c007;fill-opacity:1">
    <g id="g3224" style="fill:#d0c007;fill-opacity:1">
      <radialGradient id="SVGID_3_" cx="61.833" cy="-600.16602" r="53.000999" gradientTransform="matrix(1,0,0,-1,0,-538)" gradientUnits="userSpaceOnUse">
        <stop offset="0.9505" style="stop-color:#F3843C" id="stop3227"/>
        <stop offset="1" style="stop-color:#F2673C" id="stop3229"/>
      </radialGradient>
      <circle sodipodi:ry="53.000999" sodipodi:rx="53.000999" sodipodi:cy="62.166" sodipodi:cx="61.833" style="fill:#d0c007;fill-opacity:1" cx="61.833" cy="62.166" r="53.000999" id="circle3231"/>
    </g>
  </g>
  <g id="g3233" transform="matrix(0.4789082,0,0,0.4789082,0.8986429,-0.3032892)">
    <circle style="fill:#ffdb7f" sodipodi:ry="51.375" sodipodi:rx="51.375" sodipodi:cy="61.875" sodipodi:cx="61.625" id="SVGID_4_" cx="61.625" cy="61.875" r="51.375"/>
  </g>
  <g id="g3236" transform="matrix(0.4789082,0,0,0.4789082,0.8986429,-0.3032892)">
    <g id="g3238">
      <g id="g3240">
        <defs id="defs3242">
          <circle sodipodi:ry="51.375" sodipodi:rx="51.375" sodipodi:cy="61.875" sodipodi:cx="61.625" id="SVGID_5_" cx="61.625" cy="61.875" r="51.375"/>
        </defs>
        <clipPath id="SVGID_6_">
          <use height="62" width="62" y="0" x="0" style="overflow:visible" xlink:href="#SVGID_5_" overflow="visible" id="use3246"/>
        </clipPath>
        <linearGradient id="SVGID_7_" gradientUnits="userSpaceOnUse" x1="61.6255" y1="-551.25" x2="61.6255" y2="-652.24951" gradientTransform="matrix(1,0,0,-1,0,-538)">
          <stop offset="0" style="stop-color:#FFFFFF" id="stop3249"/>
          <stop offset="0.1478" style="stop-color:#E1F1FF" id="stop3251"/>
          <stop offset="0.2363" style="stop-color:#D4EBFF" id="stop3253"/>
          <stop offset="0.3505" style="stop-color:#E3F2FF" id="stop3255"/>
          <stop offset="0.5264" style="stop-color:#F3F9FF" id="stop3257"/>
          <stop offset="0.7262" style="stop-color:#FCFEFF" id="stop3259"/>
          <stop offset="1" style="stop-color:#FFFFFF" id="stop3261"/>
        </linearGradient>
        <circle sodipodi:ry="51.375" sodipodi:rx="51.375" sodipodi:cy="63.875" sodipodi:cx="61.625" style="fill:url(#linearGradient3363)" clip-path="url(#SVGID_6_)" cx="61.625" cy="63.875" r="51.375" id="circle3263"/>
      </g>
    </g>
  </g>
  <g id="g3265" transform="matrix(0.4789082,0,0,0.4789082,0.8986429,-0.3032892)">
    <g id="g3267">
      <g id="g3269">
        <defs id="defs3271">
          <circle sodipodi:ry="51.375" sodipodi:rx="51.375" sodipodi:cy="61.875" sodipodi:cx="61.625" id="SVGID_8_" cx="61.625" cy="61.875" r="51.375"/>
        </defs>
        <clipPath id="SVGID_9_">
          <use height="62" width="62" y="0" x="0" style="overflow:visible" xlink:href="#SVGID_8_" overflow="visible" id="use3275"/>
        </clipPath>
        <linearGradient id="SVGID_10_" gradientUnits="userSpaceOnUse" x1="10.25" y1="728.875" x2="107.833" y2="728.875" gradientTransform="translate(0,-665)">
          <stop offset="0" style="stop-color:#FFFFFF" id="stop3278"/>
          <stop offset="0.1435" style="stop-color:#EDF7FF" id="stop3280"/>
          <stop offset="0.2802" style="stop-color:#E0F2FF" id="stop3282"/>
          <stop offset="0.3063" style="stop-color:#E3F3FF" id="stop3284"/>
          <stop offset="0.4942" style="stop-color:#F3FAFF" id="stop3286"/>
          <stop offset="0.7076" style="stop-color:#FCFEFF" id="stop3288"/>
          <stop offset="1" style="stop-color:#FFFFFF" id="stop3290"/>
        </linearGradient>
        <path style="opacity:0.15;fill:url(#linearGradient3365)" clip-path="url(#SVGID_9_)" enable-background="new    " d="M 107.833,41.917 L 63.5,62.5 L 61.625,115.25 C 33.252,115.25 10.25,92.249 10.25,63.875 C 10.25,35.501 33.252,12.5 61.625,12.5 C 82.552,12.5 99.823,23.965 107.833,41.917 z" id="path3292"/>
      </g>
    </g>
  </g>
  <g id="Layer_8" transform="matrix(0.4789082,0,0,0.4789082,0.8986429,-0.3032892)" style="fill:#b9ac11;fill-opacity:1">
    <g id="g3295" style="fill:#b9ac11;fill-opacity:1">
      <g id="g3297" style="fill:#b9ac11;fill-opacity:1">
        <path style="fill:#b9ac11;fill-opacity:1" d="M 70.877,19.168 C 70.257,19.168 69.751,18.662 69.751,18.042 C 69.751,17.422 70.257,16.916 70.877,16.916 C 71.496,16.916 72.003,17.422 72.003,18.042 C 72.003,18.662 71.496,19.168 70.877,19.168 L 70.877,19.168 z" id="path3299"/>
      </g>
      <g id="g3301" style="fill:#b9ac11;fill-opacity:1">
        <path style="fill:#b9ac11;fill-opacity:1" d="M 66.044,18.582 C 65.423,18.582 64.919,18.078 64.919,17.459 C 64.919,16.838 65.423,16.334 66.044,16.334 C 66.663,16.334 67.167,16.838 67.167,17.459 C 67.167,18.078 66.663,18.582 66.044,18.582 L 66.044,18.582 z" id="path3303"/>
      </g>
      <g id="g3305" style="fill:#b9ac11;fill-opacity:1">
        <path style="fill:#b9ac11;fill-opacity:1" d="M 75.46,20.46 C 74.84,20.46 74.333,19.954 74.333,19.334 C 74.333,18.714 74.84,18.208 75.46,18.208 C 76.079,18.208 76.586,18.715 76.586,19.334 C 76.586,19.954 76.079,20.46 75.46,20.46 L 75.46,20.46 z" id="path3307"/>
      </g>
      <g id="g3309" style="fill:#b9ac11;fill-opacity:1">
        <path style="fill:#b9ac11;fill-opacity:1" d="M 79.628,22.084 C 79.008,22.084 78.501,21.579 78.501,20.959 C 78.501,20.339 79.008,19.832 79.628,19.832 C 80.248,19.832 80.753,20.339 80.753,20.959 C 80.753,21.579 80.248,22.084 79.628,22.084 L 79.628,22.084 z" id="path3311"/>
      </g>
      <g id="g3313" style="fill:#b9ac11;fill-opacity:1">
        <path style="fill:#b9ac11;fill-opacity:1" d="M 87.919,26.667 C 87.299,26.667 86.793,26.162 86.793,25.541 C 86.793,24.922 87.299,24.417 87.919,24.417 C 88.54,24.417 89.045,24.922 89.045,25.541 C 89.045,26.162 88.54,26.667 87.919,26.667 L 87.919,26.667 z" id="path3315"/>
      </g>
      <g id="g3317" style="fill:#b9ac11;fill-opacity:1">
        <path style="fill:#b9ac11;fill-opacity:1" d="M 95.002,33.126 C 94.383,33.126 93.877,32.62 93.877,32.001 C 93.877,31.381 94.383,30.876 95.002,30.876 C 95.621,30.876 96.127,31.381 96.127,32.001 C 96.127,32.62 95.621,33.126 95.002,33.126 L 95.002,33.126 z" id="path3319"/>
      </g>
      <g id="g3321" style="fill:#b9ac11;fill-opacity:1">
        <path style="fill:#b9ac11;fill-opacity:1" d="M 97.96,36.792 C 97.341,36.792 96.835,36.286 96.835,35.667 C 96.835,35.047 97.341,34.542 97.96,34.542 C 98.58,34.542 99.086,35.048 99.086,35.667 C 99.086,36.287 98.58,36.792 97.96,36.792 L 97.96,36.792 z" id="path3323"/>
      </g>
      <g id="g3325" style="fill:#b9ac11;fill-opacity:1">
        <path style="fill:#b9ac11;fill-opacity:1" d="M 102.836,45.167 C 102.216,45.167 101.712,44.663 101.712,44.043 C 101.712,43.421 102.216,42.917 102.836,42.917 C 103.457,42.917 103.962,43.421 103.962,44.043 C 103.962,44.663 103.457,45.167 102.836,45.167 L 102.836,45.167 z" id="path3327"/>
      </g>
      <g id="g3329" style="fill:#b9ac11;fill-opacity:1">
        <path style="fill:#b9ac11;fill-opacity:1" d="M 104.545,49.417 C 103.923,49.417 103.419,48.913 103.419,48.292 C 103.419,47.672 103.923,47.168 104.545,47.168 C 105.165,47.168 105.669,47.672 105.669,48.292 C 105.669,48.912 105.165,49.417 104.545,49.417 L 104.545,49.417 z" id="path3331"/>
      </g>
      <g id="g3333" style="fill:#b9ac11;fill-opacity:1">
        <path style="fill:#b9ac11;fill-opacity:1" d="M 105.545,53.708 C 104.923,53.708 104.419,53.204 104.419,52.583 C 104.419,51.961 104.923,51.457 105.545,51.457 C 106.165,51.457 106.669,51.961 106.669,52.583 C 106.669,53.204 106.165,53.708 105.545,53.708 L 105.545,53.708 z" id="path3335"/>
      </g>
      <g id="g3337" style="fill:#b9ac11;fill-opacity:1">
        <path style="fill:#b9ac11;fill-opacity:1" d="M 106.503,58.583 C 105.881,58.583 105.376,58.079 105.376,57.458 C 105.376,56.837 105.881,56.333 106.503,56.333 C 107.123,56.333 107.627,56.837 107.627,57.458 C 107.627,58.079 107.123,58.583 106.503,58.583 L 106.503,58.583 z" id="path3339"/>
      </g>
      <g id="g3341" style="fill:#b9ac11;fill-opacity:1">
        <path style="fill:#b9ac11;fill-opacity:1" d="M 106.42,68.084 C 105.8,68.084 105.295,67.579 105.295,66.959 C 105.295,66.339 105.8,65.835 106.42,65.835 C 107.04,65.835 107.544,66.339 107.544,66.959 C 107.544,67.579 107.04,68.084 106.42,68.084 L 106.42,68.084 z" id="path3343"/>
      </g>
      <g id="g3345" style="fill:#b9ac11;fill-opacity:1">
        <path style="fill:#b9ac11;fill-opacity:1" d="M 105.585,72.71 C 104.965,72.71 104.461,72.205 104.461,71.583 C 104.461,70.963 104.965,70.459 105.585,70.459 C 106.207,70.459 106.711,70.963 106.711,71.583 C 106.711,72.205 106.207,72.71 105.585,72.71 L 105.585,72.71 z" id="path3347"/>
      </g>
      <g id="g3349" style="fill:#b9ac11;fill-opacity:1">
        <path style="fill:#b9ac11;fill-opacity:1" d="M 104.418,77.46 C 103.798,77.46 103.294,76.956 103.294,76.334 C 103.294,75.714 103.798,75.209 104.418,75.209 C 105.04,75.209 105.545,75.714 105.545,76.334 C 105.545,76.956 105.04,77.46 104.418,77.46 L 104.418,77.46 z" id="path3351"/>
      </g>
      <g id="g3353" style="fill:#b9ac11;fill-opacity:1">
        <path style="fill:#b9ac11;fill-opacity:1" d="M 102.419,81.709 C 101.799,81.709 101.295,81.205 101.295,80.585 C 101.295,79.963 101.799,79.459 102.419,79.459 C 103.041,79.459 103.545,79.963 103.545,80.585 C 103.545,81.205 103.041,81.709 102.419,81.709 L 102.419,81.709 z" id="path3355"/>
      </g>
      <g id="g3357" style="fill:#b9ac11;fill-opacity:1">
        <path style="fill:#b9ac11;fill-opacity:1" d="M 97.959,90.042 C 97.34,90.042 96.834,89.536 96.834,88.917 C 96.834,88.298 97.34,87.791 97.959,87.791 C 98.579,87.791 99.085,88.298 99.085,88.917 C 99.085,89.536 98.579,90.042 97.959,90.042 L 97.959,90.042 z" id="path3359"/>
      </g>
      <g id="g3361" style="fill:#b9ac11;fill-opacity:1">
        <path style="fill:#b9ac11;fill-opacity:1" d="M 94.919,93.708 C 94.3,93.708 93.794,93.202 93.794,92.583 C 93.794,91.963 94.3,91.458 94.919,91.458 C 95.538,91.458 96.044,91.963 96.044,92.583 C 96.044,93.202 95.538,93.708 94.919,93.708 L 94.919,93.708 z" id="path3363"/>
      </g>
      <g id="g3365" style="fill:#b9ac11;fill-opacity:1">
        <path style="fill:#b9ac11;fill-opacity:1" d="M 91.629,97 C 91.009,97 90.503,96.494 90.503,95.875 C 90.503,95.256 91.009,94.75 91.629,94.75 C 92.248,94.75 92.754,95.256 92.754,95.875 C 92.754,96.494 92.248,97 91.629,97 L 91.629,97 z" id="path3367"/>
      </g>
      <g id="g3369" style="fill:#b9ac11;fill-opacity:1">
        <path style="fill:#b9ac11;fill-opacity:1" d="M 88.002,100.04 C 87.383,100.04 86.879,99.536 86.879,98.917 C 86.879,98.297 87.383,97.791 88.002,97.791 C 88.622,97.791 89.128,98.297 89.128,98.917 C 89.128,99.536 88.622,100.04 88.002,100.04 L 88.002,100.04 z" id="path3371"/>
      </g>
      <g id="g3373" style="fill:#b9ac11;fill-opacity:1">
        <path style="fill:#b9ac11;fill-opacity:1" d="M 79.545,104.709 C 78.923,104.709 78.418,104.204 78.418,103.582 C 78.418,102.963 78.923,102.458 79.545,102.458 C 80.164,102.458 80.669,102.963 80.669,103.582 C 80.669,104.204 80.164,104.709 79.545,104.709 L 79.545,104.709 z" id="path3375"/>
      </g>
      <g id="g3377" style="fill:#b9ac11;fill-opacity:1">
        <path style="fill:#b9ac11;fill-opacity:1" d="M 75.377,106.584 C 74.757,106.584 74.252,106.079 74.252,105.457 C 74.252,104.837 74.757,104.333 75.377,104.333 C 75.997,104.333 76.501,104.837 76.501,105.457 C 76.501,106.079 75.997,106.584 75.377,106.584 L 75.377,106.584 z" id="path3379"/>
      </g>
      <g id="g3381" style="fill:#b9ac11;fill-opacity:1">
        <path style="fill:#b9ac11;fill-opacity:1" d="M 70.585,107.625 C 69.965,107.625 69.461,107.121 69.461,106.501 C 69.461,105.881 69.965,105.376 70.585,105.376 C 71.205,105.376 71.709,105.881 71.709,106.501 C 71.709,107.121 71.205,107.625 70.585,107.625 L 70.585,107.625 z" id="path3383"/>
      </g>
      <g id="g3385" style="fill:#b9ac11;fill-opacity:1">
        <path style="fill:#b9ac11;fill-opacity:1" d="M 66.086,108.542 C 65.466,108.542 64.961,108.038 64.961,107.417 C 64.961,106.797 65.466,106.293 66.086,106.293 C 66.706,106.293 67.21,106.797 67.21,107.417 C 67.21,108.038 66.706,108.542 66.086,108.542 L 66.086,108.542 z" id="path3387"/>
      </g>
      <g id="g3389" style="fill:#b9ac11;fill-opacity:1">
        <path style="fill:#b9ac11;fill-opacity:1" d="M 51.542,19.167 C 50.922,19.167 50.417,18.662 50.417,18.042 C 50.417,17.422 50.922,16.917 51.542,16.917 C 52.162,16.917 52.667,17.422 52.667,18.042 C 52.667,18.662 52.163,19.167 51.542,19.167 L 51.542,19.167 z" id="path3391"/>
      </g>
      <g id="g3393" style="fill:#b9ac11;fill-opacity:1">
        <path style="fill:#b9ac11;fill-opacity:1" d="M 56.376,18.582 C 55.755,18.582 55.25,18.079 55.25,17.458 C 55.25,16.837 55.755,16.334 56.376,16.334 C 56.997,16.334 57.5,16.837 57.5,17.458 C 57.5,18.079 56.997,18.582 56.376,18.582 L 56.376,18.582 z" id="path3395"/>
      </g>
      <g id="g3397" style="fill:#b9ac11;fill-opacity:1">
        <path style="fill:#b9ac11;fill-opacity:1" d="M 46.959,20.458 C 46.339,20.458 45.834,19.953 45.834,19.333 C 45.834,18.713 46.338,18.208 46.959,18.208 C 47.579,18.208 48.084,18.713 48.084,19.333 C 48.084,19.953 47.579,20.458 46.959,20.458 L 46.959,20.458 z" id="path3399"/>
      </g>
      <g id="g3401" style="fill:#b9ac11;fill-opacity:1">
        <path style="fill:#b9ac11;fill-opacity:1" d="M 42.792,22.084 C 42.173,22.084 41.668,21.579 41.668,20.958 C 41.668,20.338 42.172,19.834 42.792,19.834 C 43.414,19.834 43.918,20.338 43.918,20.958 C 43.918,21.579 43.413,22.084 42.792,22.084 L 42.792,22.084 z" id="path3403"/>
      </g>
      <g id="g3405" style="fill:#b9ac11;fill-opacity:1">
        <path style="fill:#b9ac11;fill-opacity:1" d="M 34.5,26.667 C 33.879,26.667 33.375,26.163 33.375,25.542 C 33.375,24.921 33.879,24.417 34.5,24.417 C 35.121,24.417 35.625,24.921 35.625,25.542 C 35.625,26.163 35.121,26.667 34.5,26.667 L 34.5,26.667 z" id="path3407"/>
      </g>
      <g id="g3409" style="fill:#b9ac11;fill-opacity:1">
        <path style="fill:#b9ac11;fill-opacity:1" d="M 27.417,33.126 C 26.796,33.126 26.291,32.62 26.291,32 C 26.291,31.379 26.797,30.875 27.417,30.875 C 28.037,30.875 28.542,31.379 28.542,32 C 28.542,32.621 28.038,33.126 27.417,33.126 L 27.417,33.126 z" id="path3411"/>
      </g>
      <g id="g3413" style="fill:#b9ac11;fill-opacity:1">
        <path style="fill:#b9ac11;fill-opacity:1" d="M 30.979,29.689 C 30.358,29.689 29.854,29.183 29.854,28.563 C 29.854,27.943 30.358,27.438 30.979,27.438 C 31.6,27.438 32.103,27.942 32.103,28.563 C 32.103,29.184 31.6,29.689 30.979,29.689 L 30.979,29.689 z" id="path3415"/>
      </g>
      <g id="g3417" style="fill:#b9ac11;fill-opacity:1">
        <path style="fill:#b9ac11;fill-opacity:1" d="M 24.457,36.792 C 23.838,36.792 23.334,36.288 23.334,35.667 C 23.334,35.046 23.838,34.542 24.457,34.542 C 25.078,34.542 25.582,35.046 25.582,35.667 C 25.582,36.288 25.078,36.792 24.457,36.792 L 24.457,36.792 z" id="path3419"/>
      </g>
      <g id="g3421" style="fill:#b9ac11;fill-opacity:1">
        <path style="fill:#b9ac11;fill-opacity:1" d="M 19.583,45.167 C 18.963,45.167 18.458,44.663 18.458,44.041 C 18.458,43.421 18.963,42.916 19.583,42.916 C 20.205,42.916 20.709,43.421 20.709,44.041 C 20.708,44.663 20.204,45.167 19.583,45.167 L 19.583,45.167 z" id="path3423"/>
      </g>
      <g id="g3425" style="fill:#b9ac11;fill-opacity:1">
        <path style="fill:#b9ac11;fill-opacity:1" d="M 17.875,49.417 C 17.255,49.417 16.75,48.912 16.75,48.292 C 16.75,47.672 17.255,47.167 17.875,47.167 C 18.495,47.167 19,47.672 19,48.292 C 18.999,48.912 18.494,49.417 17.875,49.417 L 17.875,49.417 z" id="path3427"/>
      </g>
      <g id="g3429" style="fill:#b9ac11;fill-opacity:1">
        <path style="fill:#b9ac11;fill-opacity:1" d="M 16.875,53.708 C 16.255,53.708 15.75,53.203 15.75,52.583 C 15.75,51.963 16.255,51.46 16.875,51.46 C 17.495,51.46 17.999,51.963 17.999,52.583 C 17.999,53.203 17.496,53.708 16.875,53.708 L 16.875,53.708 z" id="path3431"/>
      </g>
      <g id="g3433" style="fill:#b9ac11;fill-opacity:1">
        <path style="fill:#b9ac11;fill-opacity:1" d="M 15.917,58.584 C 15.296,58.584 14.793,58.078 14.793,57.458 C 14.793,56.837 15.296,56.334 15.917,56.334 C 16.538,56.334 17.041,56.837 17.041,57.458 C 17.041,58.078 16.537,58.584 15.917,58.584 L 15.917,58.584 z" id="path3435"/>
      </g>
      <g id="g3437" style="fill:#b9ac11;fill-opacity:1">
        <path style="fill:#b9ac11;fill-opacity:1" d="M 16,68.083 C 15.381,68.083 14.876,67.578 14.876,66.959 C 14.876,66.338 15.38,65.834 16,65.834 C 16.621,65.834 17.125,66.338 17.125,66.959 C 17.125,67.578 16.621,68.083 16,68.083 L 16,68.083 z" id="path3439"/>
      </g>
      <g id="g3441" style="fill:#b9ac11;fill-opacity:1">
        <path style="fill:#b9ac11;fill-opacity:1" d="M 16.833,72.711 C 16.213,72.711 15.707,72.204 15.707,71.585 C 15.707,70.965 16.213,70.459 16.833,70.459 C 17.453,70.459 17.959,70.965 17.959,71.585 C 17.959,72.204 17.453,72.711 16.833,72.711 L 16.833,72.711 z" id="path3443"/>
      </g>
      <g id="g3445" style="fill:#b9ac11;fill-opacity:1">
        <path style="fill:#b9ac11;fill-opacity:1" d="M 18,77.46 C 17.38,77.46 16.873,76.953 16.873,76.333 C 16.873,75.714 17.38,75.209 18,75.209 C 18.62,75.209 19.126,75.714 19.126,76.333 C 19.126,76.953 18.62,77.46 18,77.46 L 18,77.46 z" id="path3447"/>
      </g>
      <g id="g3449" style="fill:#b9ac11;fill-opacity:1">
        <path style="fill:#b9ac11;fill-opacity:1" d="M 19.999,81.709 C 19.379,81.709 18.874,81.205 18.874,80.584 C 18.874,79.964 19.379,79.459 19.999,79.459 C 20.62,79.459 21.126,79.964 21.126,80.584 C 21.126,81.205 20.62,81.709 19.999,81.709 L 19.999,81.709 z" id="path3451"/>
      </g>
      <g id="g3453" style="fill:#b9ac11;fill-opacity:1">
        <path style="fill:#b9ac11;fill-opacity:1" d="M 24.458,90.043 C 23.839,90.043 23.334,89.538 23.334,88.917 C 23.334,88.296 23.839,87.791 24.458,87.791 C 25.079,87.791 25.584,88.296 25.584,88.917 C 25.584,89.538 25.079,90.043 24.458,90.043 L 24.458,90.043 z" id="path3455"/>
      </g>
      <g id="g3457" style="fill:#b9ac11;fill-opacity:1">
        <path style="fill:#b9ac11;fill-opacity:1" d="M 27.5,93.708 C 26.881,93.708 26.375,93.202 26.375,92.583 C 26.375,91.962 26.881,91.457 27.5,91.457 C 28.119,91.457 28.625,91.962 28.625,92.583 C 28.625,93.202 28.119,93.708 27.5,93.708 L 27.5,93.708 z" id="path3459"/>
      </g>
      <g id="g3461" style="fill:#b9ac11;fill-opacity:1">
        <path style="fill:#b9ac11;fill-opacity:1" d="M 30.79,97 C 30.171,97 29.665,96.494 29.665,95.875 C 29.665,95.256 30.171,94.75 30.79,94.75 C 31.41,94.75 31.915,95.256 31.915,95.875 C 31.915,96.494 31.41,97 30.79,97 L 30.79,97 z" id="path3463"/>
      </g>
      <g id="g3465" style="fill:#b9ac11;fill-opacity:1">
        <path style="fill:#b9ac11;fill-opacity:1" d="M 34.417,100.04 C 33.797,100.04 33.292,99.536 33.292,98.917 C 33.292,98.297 33.798,97.791 34.417,97.791 C 35.036,97.791 35.541,98.297 35.541,98.917 C 35.541,99.536 35.037,100.04 34.417,100.04 L 34.417,100.04 z" id="path3467"/>
      </g>
      <g id="g3469" style="fill:#b9ac11;fill-opacity:1">
        <path style="fill:#b9ac11;fill-opacity:1" d="M 42.875,104.709 C 42.255,104.709 41.751,104.204 41.751,103.582 C 41.751,102.963 42.255,102.458 42.875,102.458 C 43.495,102.458 43.999,102.963 43.999,103.582 C 43.999,104.204 43.495,104.709 42.875,104.709 L 42.875,104.709 z" id="path3471"/>
      </g>
      <g id="g3473" style="fill:#b9ac11;fill-opacity:1">
        <path style="fill:#b9ac11;fill-opacity:1" d="M 47.042,106.584 C 46.42,106.584 45.916,106.079 45.916,105.457 C 45.916,104.837 46.42,104.333 47.042,104.333 C 47.662,104.333 48.167,104.837 48.167,105.457 C 48.167,106.079 47.663,106.584 47.042,106.584 L 47.042,106.584 z" id="path3475"/>
      </g>
      <g id="g3477" style="fill:#b9ac11;fill-opacity:1">
        <path style="fill:#b9ac11;fill-opacity:1" d="M 51.834,107.625 C 51.214,107.625 50.709,107.121 50.709,106.501 C 50.709,105.881 51.213,105.376 51.834,105.376 C 52.455,105.376 52.959,105.881 52.959,106.501 C 52.959,107.121 52.455,107.625 51.834,107.625 L 51.834,107.625 z" id="path3479"/>
      </g>
      <g id="g3481" style="fill:#b9ac11;fill-opacity:1">
        <path style="fill:#b9ac11;fill-opacity:1" d="M 56.334,108.542 C 55.714,108.542 55.209,108.038 55.209,107.417 C 55.209,106.797 55.713,106.293 56.334,106.293 C 56.955,106.293 57.459,106.797 57.459,107.417 C 57.458,108.038 56.954,108.542 56.334,108.542 L 56.334,108.542 z" id="path3483"/>
      </g>
    </g>
  </g>
  <g id="Layer_7" transform="matrix(0.4789082,0,0,0.4789082,0.8986429,0.132744)" style="fill:#b9ac11;fill-opacity:1">
    <polygon style="fill:#b9ac11;fill-opacity:1" points="60.874,111.25 60.874,102.624 62.875,102.624 62.875,111.25 60.874,111.25 " id="polygon3486"/>
    <polygon style="fill:#b9ac11;fill-opacity:1" points="60.874,21.458 60.874,12.5 62.874,12.5 62.874,21.458 60.874,21.458 " id="polygon3488"/>
    <polygon style="fill:#b9ac11;fill-opacity:1" points="102.395,63.104 102.395,61.103 111.021,61.103 111.021,63.104 102.395,63.104 " id="polygon3490"/>
    <polygon style="fill:#b9ac11;fill-opacity:1" points="12.728,63.104 12.728,61.104 21.354,61.104 21.354,63.104 12.728,63.104 " id="polygon3492"/>
  </g>
  <g id="Layer_9" transform="matrix(0.4789082,0,0,0.4789082,0.8986429,0.132744)" style="fill:#b9ac11;fill-opacity:1">
    <path style="fill:#b9ac11;fill-opacity:1" d="M 26.359,42.393 L 27.226,40.874 L 19.472,36.439 L 18.604,37.956 L 18.93,38.144 L 26.359,42.393 z M 36.423,19.53 L 36.612,19.854 L 40.893,27.262 L 42.409,26.387 L 37.937,18.655 L 36.423,19.53 z M 36.423,104.372 L 36.747,104.559 L 37.941,105.244 L 42.375,97.485 L 40.856,96.619 L 36.423,104.372 z M 18.636,85.906 L 18.824,86.232 L 19.511,87.42 L 27.246,82.946 L 26.368,81.43 L 18.636,85.906 z M 97.217,42.392 L 104.975,37.958 L 104.104,36.439 L 96.35,40.875 L 96.538,41.2 L 97.217,42.392 z M 82.686,27.265 L 87.155,19.528 L 85.637,18.654 L 81.169,26.387 L 81.493,26.577 L 82.686,27.265 z M 81.202,97.484 L 81.389,97.81 L 85.634,105.24 L 87.155,104.372 L 82.721,96.615 L 81.202,97.484 z M 96.332,82.95 L 96.654,83.138 L 104.062,87.42 L 104.943,85.903 L 97.206,81.43 L 96.332,82.95 z" id="path3495"/>
  </g>
  <g id="Layer_10" transform="matrix(0.4789082,0,0,0.4789082,0.8986429,-0.3032892)">
    <path style="fill:#5ff6ff;stroke:#5ff6ff" d="M 62.93,54.622 C 63.423,55.61 63.022,56.811 62.034,57.305 L 59.946,58.347 C 58.958,58.84 57.757,58.439 57.263,57.451 L 51.904,46.714 C 51.411,45.726 51.812,44.525 52.8,44.031 L 54.888,42.989 C 55.876,42.496 57.077,42.897 57.571,43.885 L 62.93,54.622 z" id="path3498"/>
    <line style="fill:none;stroke:#5ff6ff;stroke-width:2;stroke-linecap:round;stroke-linejoin:round" x1="60.375" y1="56.396" x2="84.25" y2="104.75" id="line3500"/>
  </g>
  <g id="Layer_11" transform="matrix(0.4789082,0,0,0.4789082,0.8986429,-0.3032892)">
    <g id="g3503">
      <linearGradient id="SVGID_11_" gradientUnits="userSpaceOnUse" x1="-160.0361" y1="-726.61621" x2="-160.0361" y2="-729.13458" gradientTransform="matrix(0.9796,-0.2008,-0.2008,-0.9796,63.7493,-682.0253)">
        <stop offset="0" style="stop-color:#524AC9" id="stop3506"/>
        <stop offset="0.0957" style="stop-color:#5855BC" id="stop3508"/>
        <stop offset="0.2352" style="stop-color:#5D60AF" id="stop3510"/>
        <stop offset="0.3681" style="stop-color:#5F64AB" id="stop3512"/>
        <stop offset="0.7253" style="stop-color:#190C7F" id="stop3514"/>
      </linearGradient>
      <path style="fill:url(#linearGradient3367)" d="M 69.033,59.994 C 69.213,60.873 68.646,61.731 67.767,61.912 L 39.205,67.792 C 38.326,67.973 37.467,67.405 37.287,66.525 L 37.287,66.525 C 37.107,65.646 37.673,64.787 38.552,64.607 L 67.11,58.728 C 67.994,58.548 68.854,59.114 69.033,59.994 L 69.033,59.994 z" id="path3516"/>
      <linearGradient id="SVGID_12_" gradientUnits="userSpaceOnUse" x1="-915.77289" y1="-785.93951" x2="-915.77289" y2="-789.15601" gradientTransform="matrix(0.6552,-0.7555,-0.7555,-0.6552,80.6896,-1161.2106)">
        <stop offset="0" style="stop-color:#524AC9" id="stop3519"/>
        <stop offset="0.0957" style="stop-color:#5855BC" id="stop3521"/>
        <stop offset="0.2352" style="stop-color:#5D60AF" id="stop3523"/>
        <stop offset="0.3681" style="stop-color:#5F64AB" id="stop3525"/>
        <stop offset="0.7253" style="stop-color:#190C7F" id="stop3527"/>
      </linearGradient>
      <path style="fill:url(#linearGradient3369)" d="M 93.373,26.619 C 93.79,26.981 93.836,27.612 93.475,28.029 L 60.017,67.152 C 59.655,67.57 59.023,67.615 58.606,67.254 L 57.851,66.598 C 57.434,66.237 57.388,65.606 57.75,65.188 L 91.208,26.064 C 91.568,25.646 92.201,25.602 92.617,25.963 L 93.373,26.619 z" id="path3529"/>
    </g>
  </g>
  <g id="Layer_12" transform="matrix(0.4789082,0,0,0.4789082,0.8986429,-0.3032892)">
    <g id="g3532">
      <linearGradient id="SVGID_13_" gradientUnits="userSpaceOnUse" x1="62.4063" y1="-595" x2="62.4063" y2="-603.18707" gradientTransform="matrix(1,0,0,-1,0,-538)">
        <stop offset="0" style="stop-color:#8BA4D6" id="stop3535"/>
        <stop offset="1" style="stop-color:#1B3EA6" id="stop3537"/>
      </linearGradient>
      <circle sodipodi:ry="4.4689999" sodipodi:rx="4.4689999" sodipodi:cy="61.280998" sodipodi:cx="62.405998" style="fill:url(#linearGradient3371)" cx="62.405998" cy="61.280998" r="4.4689999" id="circle3539"/>
    </g>
  </g>
  <g id="Layer_13" transform="matrix(0.4789082,0,0,0.4789082,0.8986429,-0.3032892)">
    <g id="g3542">
      <radialGradient id="SVGID_14_" cx="61.3652" cy="-595.29199" r="7.5655999" gradientTransform="matrix(1,0,0,-1,0,-538)" gradientUnits="userSpaceOnUse">
        <stop offset="0" style="stop-color:#FFFFFF" id="stop3545"/>
        <stop offset="0.0515" style="stop-color:#F6FAFF" id="stop3547"/>
        <stop offset="0.1361" style="stop-color:#DDEEFF" id="stop3549"/>
        <stop offset="0.2432" style="stop-color:#B5D9FF" id="stop3551"/>
        <stop offset="0.3688" style="stop-color:#7DBDFF" id="stop3553"/>
        <stop offset="0.5081" style="stop-color:#3699FF" id="stop3555"/>
        <stop offset="0.5714" style="stop-color:#1487FF" id="stop3557"/>
        <stop offset="0.8132" style="stop-color:#0F85FF" id="stop3559"/>
        <stop offset="0.967" style="stop-color:#3397FF" id="stop3561"/>
      </radialGradient>
      <circle sodipodi:ry="3.75" sodipodi:rx="3.75" sodipodi:cy="61.292" sodipodi:cx="62.365002" style="fill:url(#radialGradient3373)" cx="62.365002" cy="61.292" r="3.75" id="circle3563"/>
    </g>
  </g>
</svg>